<svg xmlns="http://www.w3.org/2000/svg" width="750.000000pt" height="750.000000pt" viewBox="0 0 750.000000 750.000000" preserveAspectRatio="xMidYMid meet"><metadata>
Created by potrace 1.15, written by Peter Selinger 2001-2017
</metadata><g transform="translate(0.000000,750.000000) scale(0.100000,-0.100000)" fill="#000000" stroke="none"><path d="M3420 6755 c-356 -43 -698 -144 -1005 -295 -311 -153 -551 -326 -800 -575 -249 -249 -422 -489 -575 -800 -206 -417 -310 -866 -310 -1335 0 -469 104 -918 310 -1335 154 -312 326 -553 575 -800 249 -250 489 -422 800 -575 417 -206 866 -310 1335 -310 468 0 922 105 1335 310 312 154 552 326 800 575 249 248 421 488 575 800 206 417 310 866 310 1335 0 469 -104 918 -310 1335 -153 311 -326 551 -575 800 -249 249 -489 422 -800 575 -313 154 -651 253 -1015 295 -152 18 -502 18 -650 0z m735 -215 c632 -95 1185 -380 1631 -841 673 -697 939 -1710 694 -2652 -261 -1009 -1052 -1789 -2063 -2036 -238 -58 -384 -75 -667 -75 -283 0 -429 17 -667 75 -668 163 -1251 562 -1646 1127 -764 1092 -653 2585 264 3546 494 518 1114 814 1839 880 117 10 480 -4 615 -24z"></path><path d="M3655 5271 c-45 -19 -732 -464 -757 -491 -31 -34 -44 -109 -34 -202 8 -81 19 -98 62 -98 44 0 54 5 387 203 l277 166 0 -1150 0 -1149 -337 -2 -338 -3 -19 -40 c-28 -57 -28 -188 0 -236 l20 -34 820 -3 c450 -1 829 0 840 3 33 8 54 63 54 143 0 89 -8 126 -32 151 -18 20 -28 21 -308 21 l-290 0 0 1343 c0 738 -4 1347 -8 1354 -4 6 -20 17 -35 22 -33 13 -272 14 -302 2z"></path></g></svg>