<svg xmlns="http://www.w3.org/2000/svg" width="750.000000pt" height="750.000000pt" viewBox="0 0 750.000000 750.000000" preserveAspectRatio="xMidYMid meet"><metadata>
Created by potrace 1.15, written by Peter Selinger 2001-2017
</metadata><g transform="translate(0.000000,750.000000) scale(0.100000,-0.100000)" fill="#000000" stroke="none"><path d="M3420 6755 c-356 -43 -698 -144 -1005 -295 -311 -153 -551 -326 -800 -575 -249 -249 -422 -489 -575 -800 -206 -417 -310 -866 -310 -1335 0 -469 104 -918 310 -1335 154 -312 326 -553 575 -800 249 -250 489 -422 800 -575 417 -206 866 -310 1335 -310 468 0 922 105 1335 310 312 154 552 326 800 575 249 248 421 488 575 800 206 417 310 866 310 1335 0 469 -104 918 -310 1335 -153 311 -326 551 -575 800 -249 249 -489 422 -800 575 -313 154 -651 253 -1015 295 -152 18 -502 18 -650 0z m735 -215 c632 -95 1185 -380 1631 -841 673 -697 939 -1710 694 -2652 -261 -1009 -1052 -1789 -2063 -2036 -238 -58 -384 -75 -667 -75 -283 0 -429 17 -667 75 -668 163 -1251 562 -1646 1127 -764 1092 -653 2585 264 3546 494 518 1114 814 1839 880 117 10 480 -4 615 -24z"></path><path d="M3438 5274 c-228 -41 -498 -167 -572 -267 -19 -25 -21 -42 -21 -151 0 -97 3 -127 17 -148 33 -50 60 -43 213 52 90 56 230 117 324 141 83 21 255 26 330 8 145 -33 277 -150 326 -289 41 -117 39 -281 -6 -458 -25 -98 -118 -288 -204 -417 -131 -196 -209 -285 -698 -803 -184 -196 -315 -343 -332 -373 -51 -95 -44 -284 12 -329 25 -20 42 -20 910 -20 566 0 891 4 903 10 56 30 62 250 8 307 l-21 23 -670 2 -669 3 297 310 c432 450 554 591 703 815 176 263 238 440 258 735 12 179 -27 364 -103 495 -49 83 -161 197 -238 242 -88 50 -187 88 -290 109 -110 23 -360 24 -477 3z"></path></g></svg>