<svg xmlns="http://www.w3.org/2000/svg" width="750.000000pt" height="750.000000pt" viewBox="0 0 750.000000 750.000000" preserveAspectRatio="xMidYMid meet"><metadata>
Created by potrace 1.15, written by Peter Selinger 2001-2017
</metadata><g transform="translate(0.000000,750.000000) scale(0.100000,-0.100000)" fill="#000000" stroke="none"><path d="M3420 6755 c-356 -43 -698 -144 -1005 -295 -311 -153 -551 -326 -800 -575 -249 -249 -422 -489 -575 -800 -206 -417 -310 -866 -310 -1335 0 -469 104 -918 310 -1335 154 -312 326 -553 575 -800 249 -250 489 -422 800 -575 417 -206 866 -310 1335 -310 468 0 922 105 1335 310 312 154 552 326 800 575 249 248 421 488 575 800 206 417 310 866 310 1335 0 469 -104 918 -310 1335 -153 311 -326 551 -575 800 -249 249 -489 422 -800 575 -313 154 -651 253 -1015 295 -152 18 -502 18 -650 0z m735 -215 c632 -95 1185 -380 1631 -841 673 -697 939 -1710 694 -2652 -261 -1009 -1052 -1789 -2063 -2036 -238 -58 -384 -75 -667 -75 -283 0 -429 17 -667 75 -668 163 -1251 562 -1646 1127 -764 1092 -653 2585 264 3546 494 518 1114 814 1839 880 117 10 480 -4 615 -24z"></path><path d="M3455 5295 c-287 -53 -540 -182 -581 -297 -25 -66 -13 -255 17 -273 28 -18 70 -4 154 49 106 67 228 127 334 163 92 32 278 43 370 23 90 -19 172 -64 228 -123 85 -90 123 -190 123 -327 0 -202 -105 -378 -279 -469 -123 -64 -209 -80 -465 -88 -192 -5 -222 -9 -237 -24 -58 -58 -44 -266 20 -296 9 -4 135 -10 281 -13 225 -6 277 -10 345 -28 294 -79 455 -266 455 -527 0 -259 -163 -454 -425 -510 -93 -20 -304 -19 -401 1 -119 24 -269 80 -403 150 -189 99 -211 89 -211 -101 0 -175 29 -213 229 -296 89 -37 263 -83 374 -98 115 -16 385 -14 497 4 256 42 475 156 611 320 59 70 140 232 164 325 26 102 31 310 11 404 -32 143 -115 278 -235 379 -75 65 -230 141 -331 164 -44 10 -80 20 -80 23 0 3 27 13 60 24 183 57 352 226 413 413 36 108 47 180 47 299 0 229 -64 398 -200 532 -98 96 -239 164 -410 196 -101 20 -373 20 -475 1z"></path></g></svg>