<svg xmlns="http://www.w3.org/2000/svg" width="750.000000pt" height="750.000000pt" viewBox="0 0 750.000000 750.000000" preserveAspectRatio="xMidYMid meet"><metadata>
Created by potrace 1.15, written by Peter Selinger 2001-2017
</metadata><g transform="translate(0.000000,750.000000) scale(0.100000,-0.100000)" fill="#000000" stroke="none"><path d="M3420 6755 c-356 -43 -698 -144 -1005 -295 -311 -153 -551 -326 -800 -575 -249 -249 -422 -489 -575 -800 -206 -417 -310 -866 -310 -1335 0 -469 104 -918 310 -1335 154 -312 326 -553 575 -800 249 -250 489 -422 800 -575 417 -206 866 -310 1335 -310 468 0 922 105 1335 310 312 154 552 326 800 575 249 248 421 488 575 800 206 417 310 866 310 1335 0 469 -104 918 -310 1335 -153 311 -326 551 -575 800 -249 249 -489 422 -800 575 -313 154 -651 253 -1015 295 -152 18 -502 18 -650 0z m735 -215 c632 -95 1185 -380 1631 -841 673 -697 939 -1710 694 -2652 -261 -1009 -1052 -1789 -2063 -2036 -238 -58 -384 -75 -667 -75 -283 0 -429 17 -667 75 -668 163 -1251 562 -1646 1127 -764 1092 -653 2585 264 3546 494 518 1114 814 1839 880 117 10 480 -4 615 -24z"></path><path d="M3885 5271 c-46 -12 -72 -28 -98 -64 -42 -55 -1104 -1850 -1124 -1897 -14 -36 -18 -72 -18 -182 0 -137 0 -138 28 -165 l27 -28 645 -3 645 -3 0 -324 c0 -309 1 -326 19 -344 28 -28 71 -34 215 -30 182 6 166 -29 166 371 l0 328 173 0 c117 0 180 4 197 13 42 21 60 71 60 168 0 73 -3 91 -23 120 l-23 34 -192 3 -192 2 -2 983 -3 982 -40 20 c-35 17 -63 20 -235 22 -107 1 -208 -2 -225 -6z m102 -1998 c-2 -2 -221 -2 -485 -1 l-482 3 483 812 482 812 3 -811 c1 -446 1 -813 -1 -815z"></path></g></svg>