<svg xmlns="http://www.w3.org/2000/svg" width="750.000000pt" height="750.000000pt" viewBox="0 0 750.000000 750.000000" preserveAspectRatio="xMidYMid meet"><metadata>
Created by potrace 1.15, written by Peter Selinger 2001-2017
</metadata><g transform="translate(0.000000,750.000000) scale(0.100000,-0.100000)" fill="#000000" stroke="none"><path d="M3420 6755 c-356 -43 -698 -144 -1005 -295 -311 -153 -551 -326 -800 -575 -249 -249 -422 -489 -575 -800 -206 -417 -310 -866 -310 -1335 0 -469 104 -918 310 -1335 154 -312 326 -553 575 -800 249 -250 489 -422 800 -575 417 -206 866 -310 1335 -310 468 0 922 105 1335 310 312 154 552 326 800 575 249 248 421 488 575 800 206 417 310 866 310 1335 0 469 -104 918 -310 1335 -153 311 -326 551 -575 800 -249 249 -489 422 -800 575 -313 154 -651 253 -1015 295 -152 18 -502 18 -650 0z m735 -215 c632 -95 1185 -380 1631 -841 673 -697 939 -1710 694 -2652 -261 -1009 -1052 -1789 -2063 -2036 -238 -58 -384 -75 -667 -75 -283 0 -429 17 -667 75 -668 163 -1251 562 -1646 1127 -764 1092 -653 2585 264 3546 494 518 1114 814 1839 880 117 10 480 -4 615 -24z"></path><path d="M3385 5364 c-198 -35 -415 -121 -469 -185 -24 -28 -26 -38 -26 -130 0 -186 26 -204 183 -127 56 28 149 66 207 86 96 32 117 36 246 40 110 3 159 1 218 -12 280 -63 442 -301 423 -621 -17 -271 -127 -431 -351 -512 -23 -8 -112 -20 -199 -27 -175 -14 -194 -23 -218 -94 -14 -42 -2 -746 13 -775 15 -29 54 -38 165 -38 113 0 168 12 183 41 6 10 10 59 10 108 0 49 3 177 7 285 l6 197 38 0 c48 0 157 23 232 49 271 94 456 316 512 616 24 127 16 386 -15 499 -87 318 -317 527 -657 595 -122 25 -381 28 -508 5z"></path><path d="M3440 2658 c-34 -18 -51 -35 -69 -72 -22 -44 -25 -62 -25 -171 0 -109 3 -127 25 -171 37 -75 82 -94 224 -94 141 0 187 19 224 93 21 42 24 62 24 165 1 227 -40 271 -248 272 -95 0 -117 -3 -155 -22z"></path></g></svg>