<svg xmlns="http://www.w3.org/2000/svg" id="Layer_1" height="512" viewBox="0 0 128 128" width="512" data-name="Layer 1"><path d="m63.982 53.885-27.664 14.637v43.978h18.206v-19.646h18.916v19.646h18.206v-43.843z" fill="#ffd89e"></path><path d="m54.524 92.854h18.915v19.646h-18.915z" fill="#cb6f2c"></path><path d="m65.696 92.854h7.743v19.646h-7.743z" fill="#af5819"></path><path d="m82 62.833 9.646 5.824v43.484h-9.646z" fill="#ffc65c"></path><path d="m44.667 92.854h9.858v19.646h-9.858z" fill="#ffc65c"></path><path d="m78.761 15.5a23.525 23.525 0 0 0 -23.525 23.525c0 12.993 23.525 33.709 23.525 33.709s23.525-20.717 23.525-33.709a23.525 23.525 0 0 0 -23.525-23.525zm0 33.986a10.461 10.461 0 1 1 10.46-10.461 10.46 10.46 0 0 1 -10.46 10.461z" fill="#ff6100"></path><path d="m78.761 72.734s23.525-20.717 23.525-33.709a23.525 23.525 0 0 0 -23.525-23.525s34.094 17.469 0 57.234z" fill="#ef3f00"></path><path d="m80.022 49.4a10.457 10.457 0 1 1 -1.261-20.838c-5.781 0-15.886 1.623-15.886 10.468 0 8.655 10.1 10.468 15.886 10.468a8.467 8.467 0 0 0 1.261-.098z" fill="#ef3f00"></path><g fill="#5d0000"><path d="m77.6 74.048a1.75 1.75 0 0 0 2.313 0c.321-.283 3-2.662 6.46-6.2l3.527 1.862v33.956a1.75 1.75 0 0 0 3.5 0v-32.1l5.127 2.716a1.75 1.75 0 0 0 1.639-3.093l-11.282-5.976c6.866-7.406 15.152-18.031 15.152-26.188a25.284 25.284 0 0 0 -3.275-12.453 1.75 1.75 0 0 0 -3.045 1.728 21.777 21.777 0 0 1 2.82 10.726c0 4.88-3.911 11.987-11.312 20.553a140.4 140.4 0 0 1 -10.463 10.79 140.587 140.587 0 0 1 -10.461-10.791c-7.4-8.565-11.311-15.673-11.311-20.553a21.786 21.786 0 0 1 30.988-19.735 1.75 1.75 0 1 0 1.482-3.17 25.285 25.285 0 0 0 -35.973 22.905c0 13.627 23.133 34.156 24.114 35.023z"></path><path d="m93.7 23.186a1.75 1.75 0 0 0 2.406-2.541q-.284-.27-.577-.529a1.75 1.75 0 0 0 -2.318 2.623q.252.219.489.447z"></path><path d="m78.761 47.736a8.694 8.694 0 0 1 -6.678-3.118 1.75 1.75 0 1 0 -2.683 2.248 12.21 12.21 0 1 0 -2.851-7.841 1.75 1.75 0 1 0 3.5 0 8.71 8.71 0 1 1 8.71 8.71z"></path><path d="m112.5 110.75h-37.311v-17.9a1.75 1.75 0 0 0 -1.75-1.75h-18.915a1.75 1.75 0 0 0 -1.75 1.75v11.812a1.75 1.75 0 0 0 3.5 0v-10.062h15.415v16.15h-33.621v-41.089l17.994-9.656a1.75 1.75 0 1 0 -1.655-3.084l-26.576 14.262a1.75 1.75 0 1 0 1.655 3.084l5.082-2.727v39.21h-12.068a1.75 1.75 0 0 0 0 3.5h90a1.75 1.75 0 0 0 0-3.5z"></path><path d="m16.625 110.75h-1.125a1.75 1.75 0 0 0 0 3.5h1.125a1.75 1.75 0 0 0 0-3.5z"></path></g></svg>