<svg xmlns="http://www.w3.org/2000/svg" xmlns:xlink="http://www.w3.org/1999/xlink" id="Layer_1" x="0px" y="0px" viewBox="0 0 512 512" style="enable-background:new 0 0 512 512;" xml:space="preserve">
<circle style="fill:#FFD15D;" cx="256" cy="256" r="256"></circle>
<path style="fill:#F9B54C;" d="M510.581,283.026L369.778,142.222l-135.613,128l-91.943,99.556l140.803,140.803  C402.823,498.01,498.01,402.823,510.581,283.026z"></path>
<rect x="142.222" y="142.222" style="fill:#324A5E;" width="227.556" height="227.556"></rect>
<rect x="255.862" y="142.222" style="fill:#2B3B4E;" width="113.916" height="227.556"></rect>
<rect x="159.461" y="189.768" style="fill:#E6F3FF;" width="193.077" height="160.892"></rect>
<rect x="255.862" y="189.768" style="fill:#CFDBE6;" width="96.677" height="160.892"></rect>
<rect x="221.522" y="234.02" style="fill:#31BAFD;" width="113.778" height="24.135"></rect>
<rect x="255.862" y="234.02" style="fill:#2B9ED8;" width="79.438" height="24.135"></rect>
<rect x="221.522" y="282.29" style="fill:#31BAFD;" width="113.778" height="24.135"></rect>
<rect x="255.862" y="282.29" style="fill:#2B9ED8;" width="79.438" height="24.135"></rect>
<g>
	<rect x="176.7" y="234.02" style="fill:#31BAFD;" width="25.285" height="24.135"></rect>
	<rect x="176.7" y="282.29" style="fill:#31BAFD;" width="25.285" height="24.135"></rect>
</g>
<polygon style="fill:#FC6F58;" points="378.397,343.919 338.747,343.919 338.747,304.269 307.717,304.269 307.717,343.919   268.067,343.919 268.067,374.949 307.717,374.949 307.717,414.599 338.747,414.599 338.747,374.949 378.397,374.949 "></polygon>
<polygon style="fill:#F1543F;" points="338.747,343.919 338.747,304.269 323.52,304.269 323.52,414.599 338.747,414.599   338.747,374.949 378.397,374.949 378.397,343.919 "></polygon>
<g>
</g>
<g>
</g>
<g>
</g>
<g>
</g>
<g>
</g>
<g>
</g>
<g>
</g>
<g>
</g>
<g>
</g>
<g>
</g>
<g>
</g>
<g>
</g>
<g>
</g>
<g>
</g>
<g>
</g>
</svg>